<?xml version="1.0" standalone="no"?>
<!DOCTYPE svg PUBLIC "-//W3C//DTD SVG 20010904//EN"
 "http://www.w3.org/TR/2001/REC-SVG-20010904/DTD/svg10.dtd">
<svg version="1.0" xmlns="http://www.w3.org/2000/svg"
 width="512.000000pt" height="512.000000pt" viewBox="0 0 512.000000 512.000000"
 preserveAspectRatio="xMidYMid meet">
<metadata>
Created by potrace 1.14, written by Peter Selinger 2001-2017
</metadata>
<g transform="translate(0.000000,512.000000) scale(0.100000,-0.100000)"
fill="#000000" stroke="none">
<path d="M1050 5110 c-92 -16 -110 -20 -134 -30 -15 -5 -26 -8 -26 -6 0 3 -26
-5 -57 -16 -369 -129 -653 -414 -772 -776 -30 -92 -33 -106 -51 -226 -7 -45
-9 -574 -7 -1540 3 -1620 -1 -1501 64 -1696 120 -359 449 -672 809 -771 180
-49 141 -48 1719 -46 1381 3 1485 4 1555 21 219 52 377 130 540 268 206 174
340 398 406 678 17 70 18 180 20 1565 2 1257 0 1503 -12 1570 -46 256 -163
477 -348 660 -191 189 -390 291 -663 340 -65 11 -326 14 -1538 13 -803 0
-1480 -4 -1505 -8z m2739 -1305 c6 -6 13 -33 16 -60 3 -28 7 -63 10 -80 2 -16
7 -66 10 -110 4 -44 8 -91 10 -105 2 -14 7 -52 10 -85 3 -33 8 -78 10 -100 2
-22 9 -89 15 -150 6 -60 12 -126 15 -145 8 -71 14 -127 21 -205 3 -44 8 -88
10 -98 2 -10 6 -53 9 -95 3 -42 8 -88 10 -102 3 -14 7 -54 10 -90 3 -36 8 -85
11 -110 5 -47 8 -81 19 -190 3 -36 8 -83 10 -105 3 -22 7 -62 10 -90 7 -77 15
-156 20 -200 2 -22 9 -87 15 -145 5 -58 12 -128 15 -156 9 -79 14 -78 -284
-79 -141 -1 -264 1 -273 3 -21 5 -34 50 -42 147 -3 39 -8 84 -10 100 -2 17 -7
71 -11 120 -4 50 -8 92 -10 95 -2 3 -6 46 -9 96 -4 50 -8 99 -10 110 -2 10 -7
53 -10 94 -4 41 -9 91 -11 110 -3 19 -7 64 -10 100 -3 36 -8 83 -10 105 -4 38
-10 96 -20 195 -2 25 -7 74 -11 109 l-6 64 -120 -309 c-66 -170 -126 -322
-133 -339 -7 -16 -36 -91 -65 -165 -28 -74 -71 -184 -95 -245 -23 -60 -57
-147 -75 -193 -48 -124 -35 -118 -266 -119 -186 -1 -196 0 -219 21 -21 19 -59
112 -355 876 -143 368 -173 445 -176 449 -8 9 -12 -7 -19 -79 -4 -41 -8 -82
-10 -90 -2 -8 -6 -51 -10 -95 -4 -44 -8 -91 -10 -105 -6 -56 -16 -158 -21
-205 -2 -27 -7 -70 -9 -95 -5 -49 -10 -99 -20 -200 -3 -36 -8 -81 -10 -100 -2
-19 -7 -64 -10 -100 -3 -36 -8 -81 -10 -100 -3 -19 -7 -60 -10 -90 -13 -135
-16 -147 -38 -157 -12 -5 -137 -9 -279 -8 -298 1 -293 -1 -284 82 3 29 8 79
12 111 3 31 7 71 9 87 2 17 6 62 10 100 3 39 8 84 10 100 2 17 6 62 10 100 3
39 8 84 10 100 2 17 6 62 10 100 3 39 8 81 10 95 2 14 7 59 10 100 4 41 8 86
10 100 2 14 7 59 10 100 4 41 8 89 10 105 3 17 7 59 10 95 3 36 8 81 10 100 6
41 12 98 21 195 3 39 7 77 9 85 1 8 6 51 10 95 3 44 8 94 10 110 3 17 7 59 10
95 3 36 7 79 9 95 2 17 6 62 10 100 3 39 8 86 11 105 2 19 7 57 10 85 4 27 12
53 18 57 7 4 134 8 283 8 264 0 272 -1 314 -23 24 -13 52 -37 62 -55 9 -17
140 -353 289 -747 150 -393 276 -715 279 -715 4 0 17 28 30 63 12 34 28 76 35
92 7 17 23 57 34 90 12 33 26 69 31 80 5 11 41 106 80 210 39 105 77 206 85
225 25 61 207 543 225 596 44 126 84 171 168 182 76 11 530 8 541 -3z"/>
</g>
</svg>
